<?xml version="1.0" encoding="UTF-8"?>
<svg version="1.1" xmlns="http://www.w3.org/2000/svg" width="210" height="232">
<path d="M0 0 C6.84642431 1.39054475 13.41863069 3.69325847 20 6 C21.58107729 6.53019705 23.16309582 7.05759644 24.74609375 7.58203125 C27.1259584 8.37298931 29.50070356 9.17303225 31.87109375 9.9921875 C38.79295055 12.37322196 45.78413074 14.3755755 52.85717773 16.24951172 C56.47152705 17.22243885 59.67597211 18.25208421 63 20 C64.42599106 20.37956139 65.86521876 20.71208615 67.3125 21 C74.12797431 22.37043649 80.74222827 24.5042642 87.375 26.5625 C88.09816406 26.78357422 88.82132813 27.00464844 89.56640625 27.23242188 C94.88337585 28.88337585 94.88337585 28.88337585 96 30 C98.0917905 44.79748092 100.8255089 70.3489822 94 84 C93.84345538 85.45528516 93.72424452 86.91468783 93.625 88.375 C93.17354729 93.19733575 92.18662778 97.67356382 90.94140625 102.34765625 C90.21031589 105.18404418 89.53825423 108.01306297 88.90234375 110.87109375 C86.40647212 121.99549162 83.29653289 132.44521191 79 143 C78.67386719 143.87269531 78.34773437 144.74539062 78.01171875 145.64453125 C65.4788707 178.93663422 42.62786711 208.28562895 11 225 C10.29617187 225.37253906 9.59234375 225.74507812 8.8671875 226.12890625 C0.79194712 230.28934379 -6.87582429 233.03372707 -15.98583984 230.43310547 C-24.67359326 227.48915585 -32.39278755 223.61573718 -39.60546875 217.89453125 C-42.02870303 215.91692581 -42.02870303 215.91692581 -44.921875 214.1015625 C-48.25809004 211.82379132 -51.12398468 209.31901695 -54.0625 206.5625 C-54.56587891 206.09779297 -55.06925781 205.63308594 -55.58789062 205.15429688 C-73.89877921 188.16994097 -85.5820403 167.58148313 -94.92749023 144.62670898 C-95.60479104 142.9679156 -96.29764393 141.31531124 -97.01196289 139.67211914 C-100.04569289 132.53494509 -102.02658756 125.1391778 -103.98217773 117.65307617 C-104.55575866 115.46323736 -105.14334495 113.27751106 -105.73242188 111.09179688 C-110.02803559 94.938828 -113.19684048 78.69553428 -113.09765625 61.93359375 C-113.0962413 61.01409439 -113.09482635 60.09459503 -113.09336853 59.14723206 C-113.08782312 56.24395329 -113.07528117 53.34075499 -113.0625 50.4375 C-113.05747793 48.45507925 -113.05291627 46.47265727 -113.04882812 44.49023438 C-113.03787164 39.6601258 -113.02064542 34.83007649 -113 30 C-107.70680949 27.80143107 -102.54735451 25.69202443 -96.9375 24.4375 C-92.68688325 23.47768331 -88.63422122 22.22648636 -84.5144043 20.82739258 C-79.86124413 19.2962187 -75.14507008 17.97739073 -70.4375 16.625 C-62.27144233 14.26195793 -54.13727704 11.83072573 -46.03515625 9.2578125 C-42.92834688 8.27838036 -39.80908139 7.34774052 -36.68359375 6.4296875 C-35.7719043 6.16099854 -34.86021484 5.89230957 -33.92089844 5.61547852 C-32.13504042 5.09085481 -30.34797222 4.57032853 -28.55957031 4.05444336 C-27.7497168 3.81604736 -26.93986328 3.57765137 -26.10546875 3.33203125 C-25.38512451 3.12296143 -24.66478027 2.9138916 -23.92260742 2.69848633 C-15.63503457 -0.31240204 -9.06091392 -1.00857278 0 0 Z M-45.3125 83.75 C-54.81231906 96.39723385 -56.98385636 108.5424525 -55 124 C-53.62220104 131.44619289 -50.49914158 136.97733958 -46 143 C-44.9790625 144.4540625 -44.9790625 144.4540625 -43.9375 145.9375 C-41.76137406 148.25402117 -39.93010332 148.89131226 -37 150 C-36.67 150.99 -36.34 151.98 -36 153 C-33.73864535 154.33984531 -31.5524855 155.50311743 -29.1875 156.625 C-28.24293945 157.09292969 -28.24293945 157.09292969 -27.27929688 157.5703125 C-16.86707142 162.63985354 -3.99482253 162.52489921 7.0625 159.375 C12.5112792 157.43443352 17.69111044 154.92192617 22 151 C22.495 149.515 22.495 149.515 23 148 C23.77214844 147.70996094 24.54429687 147.41992188 25.33984375 147.12109375 C31.56866815 144.49602385 34.84171208 135.88387942 37.4375 129.9375 C40.87554701 119.62335898 40.6227473 105.88255165 36 96 C30.28595139 84.58666777 22.66211991 74.70069272 10.37890625 69.99609375 C7.92886348 69.24251447 5.49767421 68.57479589 3 68 C1.83017578 67.72736328 1.83017578 67.72736328 0.63671875 67.44921875 C-16.93734272 64.45511939 -33.67332786 70.07343088 -45.3125 83.75 Z " fill="#39E8D4" transform="translate(113,0)"/>
<path d="M0 0 C0.99 0.33 1.98 0.66 3 1 C7.24242424 42.51515152 7.24242424 42.51515152 1 55 C0.84345538 56.45528516 0.72424452 57.91468783 0.625 59.375 C0.17354729 64.19733575 -0.81337222 68.67356382 -2.05859375 73.34765625 C-2.78968411 76.18404418 -3.46174577 79.01306297 -4.09765625 81.87109375 C-6.59352788 92.99549162 -9.70346711 103.44521191 -14 114 C-14.32613281 114.87269531 -14.65226563 115.74539062 -14.98828125 116.64453125 C-27.5211293 149.93663422 -50.37213289 179.28562895 -82 196 C-82.70382813 196.37253906 -83.40765625 196.74507812 -84.1328125 197.12890625 C-92.20805288 201.28934379 -99.87582429 204.03372707 -108.98583984 201.43310547 C-117.67359326 198.48915585 -125.39278755 194.61573718 -132.60546875 188.89453125 C-135.02870303 186.91692581 -135.02870303 186.91692581 -137.921875 185.1015625 C-141.25809004 182.82379132 -144.12398468 180.31901695 -147.0625 177.5625 C-147.56587891 177.09779297 -148.06925781 176.63308594 -148.58789062 176.15429688 C-158.20643569 167.23256749 -166.01090375 157.29985823 -173.125 146.3125 C-173.71039551 145.41253296 -173.71039551 145.41253296 -174.30761719 144.49438477 C-177 140.25345389 -177 140.25345389 -177 138 C-176.02933594 137.48179687 -175.05867188 136.96359375 -174.05859375 136.4296875 C-169.38833546 133.75929088 -165.26591642 130.46645001 -161.0625 127.125 C-151.61365971 119.67171631 -151.61365971 119.67171631 -147.55859375 116.5546875 C-146.92107178 116.06210449 -146.2835498 115.56952148 -145.62670898 115.06201172 C-144 114 -144 114 -142 114 C-142 113.34 -142 112.68 -142 112 C-138.14804223 113.56931613 -135.88256053 116.05040318 -133 119 C-123.66303505 128.31245848 -112.9907705 131.2936063 -100.13696289 131.31689453 C-88.49836257 131.12836806 -77.88162941 127.63229501 -69.3828125 119.44140625 C-68.92648438 118.96574219 -68.47015625 118.49007812 -68 118 C-67.34 117.34 -66.68 116.68 -66 116 C-56.09483959 103.74960662 -54.0293468 92.4678284 -55 77 C-56.2946992 68.57268519 -60.82314224 61.3009185 -65 54 C-55.55284175 46.70868677 -46.06627037 39.46978414 -36.5703125 32.2421875 C-32.8328298 29.39727728 -29.09869469 26.54805558 -25.3671875 23.6953125 C-7.66697867 10.17040168 -7.66697867 10.17040168 1 4 C0.67 2.68 0.34 1.36 0 0 Z " fill="#8B29E7" transform="translate(206,29)"/>
<path d="M0 0 C6.84642431 1.39054475 13.41863069 3.69325847 20 6 C21.58107729 6.53019705 23.16309582 7.05759644 24.74609375 7.58203125 C27.1259584 8.37298931 29.50070356 9.17303225 31.87109375 9.9921875 C38.79295055 12.37322196 45.78413074 14.3755755 52.85717773 16.24951172 C56.47152705 17.22243885 59.67597211 18.25208421 63 20 C64.42599106 20.37956139 65.86521876 20.71208615 67.3125 21 C71.27615631 21.79700091 75.11384658 22.88552743 79 24 C80.81951172 24.44279297 80.81951172 24.44279297 82.67578125 24.89453125 C83.87589844 25.19746094 85.07601562 25.50039063 86.3125 25.8125 C88.13201172 26.25529297 88.13201172 26.25529297 89.98828125 26.70703125 C93 28 93 28 94.41796875 30.63671875 C94.70607422 31.80654297 94.70607422 31.80654297 95 33 C85.81792142 40.18792604 76.6133147 47.33793537 67.26489258 54.30859375 C61.54052909 58.58090639 55.862645 62.91259634 50.1875 67.25 C43.19072564 72.59447854 36.17308089 77.89316958 29 83 C25.86035895 81.57160475 23.40752362 79.81411118 20.75 77.625 C11.55157408 70.45912948 2.23888511 68.40103455 -9 66 C-9.00410889 65.38479492 -9.00821777 64.76958984 -9.01245117 64.13574219 C-9.04541296 61.33952769 -9.11605576 58.54548496 -9.1875 55.75 C-9.19330078 54.78191406 -9.19910156 53.81382813 -9.20507812 52.81640625 C-9.26579754 47.05169503 -9.26579754 47.05169503 -12.421875 42.453125 C-13.27265625 41.97359375 -14.1234375 41.4940625 -15 41 C-16.35368596 39.68733482 -17.68799596 38.35432675 -19 37 C-19.66 36.34 -20.32 35.68 -21 35 C-32 24 -32 24 -34.5 21.4375 C-36.95236998 18.96230892 -36.95236998 18.96230892 -39.6875 16.875 C-42 15 -42 15 -44 12 C-44.99 11.34 -45.98 10.68 -47 10 C-42.66442456 8.52900119 -38.32503729 7.0918316 -33.9453125 5.7578125 C-33.23439453 5.54020264 -32.52347656 5.32259277 -31.79101562 5.09838867 C-30.36127362 4.66214976 -28.93029701 4.22993436 -27.49804688 3.80200195 C-17.51978801 0.74947421 -10.7351329 -1.19493055 0 0 Z " fill="#21B7EC" transform="translate(113,0)"/>
<path d="M0 0 C3.85195777 1.56931613 6.11743947 4.05040318 9 7 C15.43065906 13.41378069 24.19376366 18.68763325 33.47363281 19.11352539 C34.37436523 19.10828857 35.27509766 19.10305176 36.203125 19.09765625 C37.1828125 19.09443359 38.1625 19.09121094 39.171875 19.08789062 C40.18765625 19.07951172 41.2034375 19.07113281 42.25 19.0625 C43.28125 19.05798828 44.3125 19.05347656 45.375 19.04882812 C47.91672573 19.03706088 50.45833319 19.02062011 53 19 C52.7215625 20.3921875 52.7215625 20.3921875 52.4375 21.8125 C51.86379071 25.99238196 52.67007356 27.50511034 55 31 C54.34 31 53.68 31 53 31 C52.731875 31.928125 52.46375 32.85625 52.1875 33.8125 C51.04142433 36.88880839 50.26517658 37.83330936 48 40 C47.77376953 40.90492188 47.77376953 40.90492188 47.54296875 41.828125 C46.77595678 44.89617288 45.25284265 47.43445999 43.7421875 50.1953125 C43.49726562 50.79085937 43.25234375 51.38640625 43 52 C43.33 52.66 43.66 53.32 44 54 C43.01 54.99 43.01 54.99 42 56 C41.05678735 59.52354328 40.84571847 62.92710723 40.75390625 66.5625 C40.70459961 68.12871094 40.70459961 68.12871094 40.65429688 69.7265625 C40.59310193 71.9087482 40.53580971 74.09104684 40.48242188 76.2734375 C40.44826172 77.31757813 40.41410156 78.36171875 40.37890625 79.4375 C40.34132202 80.85869141 40.34132202 80.85869141 40.30297852 82.30859375 C39.98067565 85.17166128 39.18564174 87.38619215 38 90 C27.45913622 88.25654915 17.79528121 83.48349138 9.46484375 76.9296875 C6.97915619 74.9252436 6.97915619 74.9252436 4.0703125 73.09765625 C0.7378023 70.82086493 -2.12652653 68.31663253 -5.0625 65.5625 C-5.81756836 64.86543945 -5.81756836 64.86543945 -6.58789062 64.15429688 C-16.20643569 55.23256749 -24.01090375 45.29985823 -31.125 34.3125 C-31.51526367 33.71252197 -31.90552734 33.11254395 -32.30761719 32.49438477 C-35 28.25345389 -35 28.25345389 -35 26 C-33.54400391 25.22269531 -33.54400391 25.22269531 -32.05859375 24.4296875 C-27.38833546 21.75929088 -23.26591642 18.46645001 -19.0625 15.125 C-9.61365971 7.67171631 -9.61365971 7.67171631 -5.55859375 4.5546875 C-4.92107178 4.06210449 -4.2835498 3.56952148 -3.62670898 3.06201172 C-2 2 -2 2 0 2 C0 1.34 0 0.68 0 0 Z M55 29 C57 30 57 30 57 30 Z " fill="#C53EE4" transform="translate(64,141)"/>
<path d="M0 0 C0.99 0.33 1.98 0.66 3 1 C7.24242424 42.51515152 7.24242424 42.51515152 1 55 C0.84345538 56.45528516 0.72424452 57.91468783 0.625 59.375 C0.16698701 64.42041295 -0.94215139 69.12544546 -2.234375 74.015625 C-3.33595322 78.30953196 -4.18097283 82.64470257 -5 87 C-5.33 85.68 -5.66 84.36 -6 83 C-6.99 83 -7.98 83 -9 83 C-9.33 83.66 -9.66 84.32 -10 85 C-11.32 84.67 -12.64 84.34 -14 84 C-14.66 84.99 -15.32 85.98 -16 87 C-16.99 85.68 -17.98 84.36 -19 83 C-17.35 81.35 -15.7 79.7 -14 78 C-14.680625 77.46375 -15.36125 76.9275 -16.0625 76.375 C-18 74 -18 74 -17.75 70.75 C-17.5025 69.8425 -17.255 68.935 -17 68 C-17.763125 68.94875 -18.52625 69.8975 -19.3125 70.875 C-21.15534046 73.16609895 -22.46837417 74.31224944 -25 76 C-25.66 76.99 -26.32 77.98 -27 79 C-27.33 79 -27.66 79 -28 79 C-28.0825 79.53625 -28.165 80.0725 -28.25 80.625 C-29.68663147 85.17433297 -32.05794887 88.37196591 -36 91 C-36.66 90.67 -37.32 90.34 -38 90 C-37.814375 90.598125 -37.62875 91.19625 -37.4375 91.8125 C-37 94 -37 94 -38 97 C-38.61875 97.598125 -39.2375 98.19625 -39.875 98.8125 C-42.20679034 100.94209313 -42.20679034 100.94209313 -43.3125 104.1875 C-43.869375 105.115625 -44.42625 106.04375 -45 107 C-48.6875 107.875 -48.6875 107.875 -52 108 C-52.33 108.99 -52.66 109.98 -53 111 C-55.97172226 113.7667759 -56.74190625 114 -61 114 C-61.99 114.99 -61.99 114.99 -63 116 C-63.99 115.67 -64.98 115.34 -66 115 C-64.88625 114.01 -64.88625 114.01 -63.75 113 C-56.24254511 105.42874238 -54.81672975 95.29299109 -54.6875 85.0625 C-54.76984452 72.94110729 -59.08723016 64.33519769 -65 54 C-55.55284175 46.70868677 -46.06627037 39.46978414 -36.5703125 32.2421875 C-32.8328298 29.39727728 -29.09869469 26.54805558 -25.3671875 23.6953125 C-7.66697867 10.17040168 -7.66697867 10.17040168 1 4 C0.505 2.02 0.505 2.02 0 0 Z " fill="#993FDF" transform="translate(206,29)"/>
<path d="M0 0 C2.0161429 0.0070618 4.03113421 0.12588892 6.04296875 0.2578125 C5.51703125 1.6809375 5.51703125 1.6809375 4.98046875 3.1328125 C3.69270098 6.12841422 3.69270098 6.12841422 5.04296875 8.2578125 C4.38296875 8.2578125 3.72296875 8.2578125 3.04296875 8.2578125 C3.22859375 9.1446875 3.41421875 10.0315625 3.60546875 10.9453125 C4.36729506 16.71342601 2.64297863 20.16612648 0.04296875 25.2578125 C-0.6433975 27.49306285 -0.6433975 27.49306285 -0.95703125 29.2578125 C-1.94703125 29.2578125 -2.93703125 29.2578125 -3.95703125 29.2578125 C-6.02471691 31.32549816 -6.92942021 32.54198332 -7.95703125 35.2578125 C-7.95703125 36.3509375 -7.95703125 37.4440625 -7.95703125 38.5703125 C-7.95703125 46.36117878 -11.43599111 52.52236934 -14.95703125 59.2578125 C-17.77752385 64.68253732 -17.77752385 64.68253732 -19.95703125 70.3828125 C-21.13645895 73.77366713 -22.91275383 76.31916371 -24.95703125 79.2578125 C-26.1280121 81.35325191 -26.90983647 82.79341588 -27.15234375 85.1796875 C-28.39517079 88.3893185 -30.59755708 88.9511469 -33.64453125 90.3828125 C-34.67964844 90.88039063 -35.71476562 91.37796875 -36.78125 91.890625 C-42.88900605 94.52004027 -47.38286461 95.4845079 -53.95703125 95.2578125 C-53.72306641 93.63939453 -53.72306641 93.63939453 -53.484375 91.98828125 C-52.67338572 85.51604515 -52.60839749 78.99708136 -52.43945312 72.48242188 C-52.40529297 71.49693359 -52.37113281 70.51144531 -52.3359375 69.49609375 C-52.31088135 68.60962158 -52.2858252 67.72314941 -52.26000977 66.80981445 C-51.92746986 64.00881559 -51.08355512 61.83229358 -49.95703125 59.2578125 C-49.81265625 58.6184375 -49.66828125 57.9790625 -49.51953125 57.3203125 C-48.72982033 54.42470579 -47.31878699 51.92685376 -45.95703125 49.2578125 C-45.65925781 48.46890625 -45.36148438 47.68 -45.0546875 46.8671875 C-43.90459843 44.13316794 -42.50875717 41.88750025 -40.83203125 39.4453125 C-40.29320313 38.65511719 -39.754375 37.86492187 -39.19921875 37.05078125 C-38.78929688 36.45910156 -38.379375 35.86742187 -37.95703125 35.2578125 C-38.94703125 34.5978125 -39.93703125 33.9378125 -40.95703125 33.2578125 C-40.62703125 31.6078125 -40.29703125 29.9578125 -39.95703125 28.2578125 C-40.61703125 27.9278125 -41.27703125 27.5978125 -41.95703125 27.2578125 C-38.9412758 23.84429554 -36.26596391 22.34286177 -32.01953125 20.7578125 C-26.21903823 18.58721081 -22.27482745 15.62398737 -17.95703125 11.2578125 C-14.6891374 8.59127442 -11.74146125 6.51426077 -7.70703125 5.1953125 C-4.82081396 4.52824404 -4.82081396 4.52824404 -3.58203125 2.1328125 C-1.95703125 0.2578125 -1.95703125 0.2578125 0 0 Z " fill="#A320E5" transform="translate(155.95703125,135.7421875)"/>
<path d="M0 0 C4.72106912 3.89875175 6.68911867 8.44281848 8.4375 14.1875 C8.56264555 17.31613872 8.03960564 19.2141952 7.1875 22.1875 C6.49227973 25.29499464 6.227266 26.68212643 7.73828125 29.5234375 C11.06353692 33.37218131 14.96921579 36.56062958 18.8515625 39.828125 C26.24887647 46.24588597 26.24887647 46.24588597 26.93359375 50.7578125 C26.93707201 52.97694221 26.83206322 55.11106701 26.5625 57.3125 C23.93688891 57.39324203 21.31374324 57.4528623 18.6875 57.5 C17.94113281 57.52513672 17.19476563 57.55027344 16.42578125 57.57617188 C14.2578125 57.60546875 14.2578125 57.60546875 10.5625 57.3125 C8.5625 54.3125 8.5625 54.3125 7.5625 51.3125 C4.55402582 50.08729736 4.55402582 50.08729736 1.5625 49.3125 C1.5625 47.6625 1.5625 46.0125 1.5625 44.3125 C0.9025 44.23 0.2425 44.1475 -0.4375 44.0625 C-3.11215637 43.39383591 -4.81360017 42.62289271 -7.1875 41.3125 C-10.19798207 39.72803575 -12.54703456 39.0463252 -15.9375 38.8125 C-21.39311742 38.38921934 -26.038824 36.69291197 -29.9765625 32.78515625 C-31.18581302 31.33900577 -32.31700773 29.82846013 -33.4375 28.3125 C-34.0975 27.6525 -34.7575 26.9925 -35.4375 26.3125 C-37.14291234 17.90967363 -36.9486009 11.43485629 -32.56640625 4.0078125 C-32.19386719 3.44835937 -31.82132812 2.88890625 -31.4375 2.3125 C-30.7775 2.3125 -30.1175 2.3125 -29.4375 2.3125 C-29.4375 1.6525 -29.4375 0.9925 -29.4375 0.3125 C-19.03357005 -6.05725303 -10.52776966 -7.16909687 0 0 Z M-22.4375 5.3125 C-22.4375 5.9725 -22.4375 6.6325 -22.4375 7.3125 C-23.0975 7.3125 -23.7575 7.3125 -24.4375 7.3125 C-24.1075 9.2925 -23.7775 11.2725 -23.4375 13.3125 C-21.09216049 14.08206136 -21.09216049 14.08206136 -18.4375 14.3125 C-16.4375 13.3125 -16.4375 13.3125 -15.4375 11.3125 C-15.67955349 7.99431015 -15.67955349 7.99431015 -17.4375 5.3125 C-19.10367115 5.27186168 -20.77138095 5.269779 -22.4375 5.3125 Z " fill="#FD6803" transform="translate(107.4375,85.6875)"/>
<path d="M0 0 C0.99 0.33 1.98 0.66 3 1 C7.24242424 42.51515152 7.24242424 42.51515152 1 55 C0.84345538 56.45528516 0.72424452 57.91468783 0.625 59.375 C0.16698701 64.42041295 -0.94215139 69.12544546 -2.234375 74.015625 C-3.33595322 78.30953196 -4.18097283 82.64470257 -5 87 C-5.33 85.68 -5.66 84.36 -6 83 C-6.99 83 -7.98 83 -9 83 C-9.33 83.66 -9.66 84.32 -10 85 C-11.32 84.67 -12.64 84.34 -14 84 C-14.66 84.99 -15.32 85.98 -16 87 C-16.99 85.68 -17.98 84.36 -19 83 C-17.35 81.35 -15.7 79.7 -14 78 C-14.680625 77.46375 -15.36125 76.9275 -16.0625 76.375 C-18 74 -18 74 -17.75 70.75 C-17.5025 69.8425 -17.255 68.935 -17 68 C-17.763125 68.94875 -18.52625 69.8975 -19.3125 70.875 C-21.15534046 73.16609895 -22.46837417 74.31224944 -25 76 C-25.66 76.99 -26.32 77.98 -27 79 C-27.84454356 75.62182575 -28.10844919 73.32534757 -27 70 C-27.66 70 -28.32 70 -29 70 C-28.62875 68.96875 -28.2575 67.9375 -27.875 66.875 C-26.66398505 63.0985231 -26.66398505 63.0985231 -28.0625 59.9375 C-29 57 -29 57 -27.75 53.75 C-26 51 -26 51 -24 49 C-23.62913819 47.00661779 -23.30262289 45.00487668 -23 43 C-22.39145151 40.64600236 -21.69887833 38.32959444 -21 36 C-20.34 36 -19.68 36 -19 36 C-18.896875 34.989375 -18.79375 33.97875 -18.6875 32.9375 C-17.95898777 28.76511179 -16.76383415 25.82164065 -15 22 C-14.67 21.01 -14.34 20.02 -14 19 C-13.34 18.34 -12.68 17.68 -12 17 C-11.87818359 16.09507813 -11.87818359 16.09507813 -11.75390625 15.171875 C-10.57503417 11.77574611 -7.77323139 10.23987323 -4.9375 8.25 C-4.36966797 7.83878906 -3.80183594 7.42757812 -3.21679688 7.00390625 C-1.81805343 5.99304964 -0.40990625 4.99522794 1 4 C0.67 2.68 0.34 1.36 0 0 Z " fill="#8838E2" transform="translate(206,29)"/>
<path d="M0 0 C1.0725 0.2475 2.145 0.495 3.25 0.75 C2.31666667 5.55 2.31666667 5.55 1.5625 7.8125 C1.02629829 9.83577715 1.02629829 9.83577715 2.375 11.6875 C2.66375 12.368125 2.9525 13.04875 3.25 13.75 C1.7908957 16.89859349 0.01313857 19.62450879 -2.75 21.75 C-5.4375 22.4375 -5.4375 22.4375 -7.75 22.75 C-6.76 22.75 -5.77 22.75 -4.75 22.75 C-1.75 24.75 -1.75 24.75 -0.875 27.9375 C-0.70627499 33.0836127 -2.12495459 36.74994412 -5.375 40.75 C-7.02616722 42.80423777 -7.02616722 42.80423777 -7.0625 46.0625 C-8.86795018 55.74627821 -19.78785463 62.20561045 -27.3203125 67.5859375 C-30.71076131 69.87980551 -34.05776405 71.97409233 -37.75 73.75 C-38.64674777 71.23910624 -38.88172674 70.10464891 -37.9375 67.5625 C-36.75 65.75 -36.75 65.75 -34.75 64.75 C-34.75 63.76 -34.75 62.77 -34.75 61.75 C-33.76 61.255 -33.76 61.255 -32.75 60.75 C-32.75 59.76 -32.75 58.77 -32.75 57.75 C-31.76 57.255 -31.76 57.255 -30.75 56.75 C-30.75 55.76 -30.75 54.77 -30.75 53.75 C-30.09 53.75 -29.43 53.75 -28.75 53.75 C-28.75 52.43 -28.75 51.11 -28.75 49.75 C-28.09 49.75 -27.43 49.75 -26.75 49.75 C-26.75 48.43 -26.75 47.11 -26.75 45.75 C-26.09 45.75 -25.43 45.75 -24.75 45.75 C-24.646875 44.863125 -24.54375 43.97625 -24.4375 43.0625 C-23.75 39.75 -23.75 39.75 -22.25 37.5625 C-20.27319738 33.8559951 -20.27449243 30.55548806 -19.984375 26.41015625 C-19.60209836 22.07131637 -18.97450834 18.89797657 -15.75 15.875 C-13.75 14.75 -13.75 14.75 -11.75 14.75 C-11.62625 14.0075 -11.5025 13.265 -11.375 12.5 C-10.79104133 9.93058185 -10.01400588 8.04101065 -8.75 5.75 C-8.42 5.09 -8.09 4.43 -7.75 3.75 C-5.16261767 0.26698532 -4.45998263 -0.29733218 0 0 Z " fill="#961CE9" transform="translate(166.75,148.25)"/>
<path d="M0 0 C0.66 0.33 1.32 0.66 2 1 C1.6390625 1.74765625 1.278125 2.4953125 0.90625 3.265625 C0.4421875 4.25046875 -0.021875 5.2353125 -0.5 6.25 C-0.9640625 7.22453125 -1.428125 8.1990625 -1.90625 9.203125 C-3.24280211 12.12035776 -3.24280211 12.12035776 -3 16 C-3.66 16.66 -4.32 17.32 -5 18 C-3.68 18.66 -2.36 19.32 -1 20 C-1.61875 20.2475 -2.2375 20.495 -2.875 20.75 C-5.4072196 22.23954094 -5.80718658 23.37581048 -7 26 C-7.515625 26.433125 -8.03125 26.86625 -8.5625 27.3125 C-10.31273988 29.05763889 -10.31273988 29.05763889 -10.4375 32.3125 C-11.07535584 36.49399937 -12.59532168 38.58690819 -15 42 C-15 42.99 -15 43.98 -15 45 C-15.8046875 46.8671875 -15.8046875 46.8671875 -16.875 48.875 C-18.0772052 51.17011903 -19.112129 53.30835475 -20 55.75 C-21 58 -21 58 -22.83984375 59.6953125 C-25.49240998 62.52535603 -26.9641701 65.641 -28.5625 69.125 C-31.59637965 75.73091977 -31.59637965 75.73091977 -35 78 C-34.88986124 73.93695446 -34.75929135 69.87481333 -34.625 65.8125 C-34.5940625 64.66201172 -34.563125 63.51152344 -34.53125 62.32617188 C-34.49257812 61.21435547 -34.45390625 60.10253906 -34.4140625 58.95703125 C-34.3826416 57.93585205 -34.3512207 56.91467285 -34.31884766 55.86254883 C-33.98996168 52.90987806 -33.20278043 50.70083143 -32 48 C-31.855625 47.360625 -31.71125 46.72125 -31.5625 46.0625 C-30.77278908 43.16689329 -29.36175574 40.66904126 -28 38 C-27.70222656 37.21109375 -27.40445313 36.4221875 -27.09765625 35.609375 C-25.94756718 32.87535544 -24.55172592 30.62968775 -22.875 28.1875 C-22.06675781 27.00220703 -22.06675781 27.00220703 -21.2421875 25.79296875 C-20.83226563 25.20128906 -20.42234375 24.60960937 -20 24 C-20.99 23.34 -21.98 22.68 -23 22 C-22.67 20.35 -22.34 18.7 -22 17 C-22.66 16.67 -23.32 16.34 -24 16 C-20.98424455 12.58648304 -18.30893266 11.08504927 -14.0625 9.5 C-8.32255212 7.3520549 -4.20890402 4.43042528 0 0 Z " fill="#B025E2" transform="translate(138,147)"/>
<path d="M0 0 C0.33 0 0.66 0 1 0 C2.09762144 4.17096149 1.82123495 6.83770703 0.625 10.875 C-0.07022027 13.98249464 -0.335234 15.36962643 1.17578125 18.2109375 C4.50103692 22.05968131 8.40671579 25.24812958 12.2890625 28.515625 C19.68637647 34.93338597 19.68637647 34.93338597 20.37109375 39.4453125 C20.37457201 41.66444221 20.26956322 43.79856701 20 46 C17.37438891 46.08074203 14.75124324 46.1403623 12.125 46.1875 C11.37863281 46.21263672 10.63226563 46.23777344 9.86328125 46.26367188 C7.6953125 46.29296875 7.6953125 46.29296875 4 46 C2 43 2 43 1 40 C-2.00847418 38.77479736 -2.00847418 38.77479736 -5 38 C-5 36.35 -5 34.7 -5 33 C-5.66 32.9175 -6.32 32.835 -7 32.75 C-10.40644225 31.89838944 -13.15102233 30.4943838 -16.23046875 28.83984375 C-17.97468448 27.85707599 -17.97468448 27.85707599 -20 28 C-20 27.01 -20 26.02 -20 25 C-19.01 25 -18.02 25 -17 25 C-16.67 24.34 -16.34 23.68 -16 23 C-15.34 23 -14.68 23 -14 23 C-14 22.34 -14 21.68 -14 21 C-13.34 21 -12.68 21 -12 21 C-12 20.34 -12 19.68 -12 19 C-11.34 19 -10.68 19 -10 19 C-9.773125 18.443125 -9.54625 17.88625 -9.3125 17.3125 C-7.63575448 14.35823409 -5.45423315 12.33152149 -3 10 C-0.70424397 7.70424397 -0.67660401 6.99157475 -0.375 3.875 C-0.25125 2.59625 -0.1275 1.3175 0 0 Z " fill="#FDA70D" transform="translate(114,97)"/>
<path d="M0 0 C2.33203125 2.1171875 2.33203125 2.1171875 4 4 C2.25904321 5.82200133 0.50822868 7.63229575 -1.25 9.4375 C-1.74113281 9.95376953 -2.23226562 10.47003906 -2.73828125 11.00195312 C-6.55296484 14.89293039 -6.55296484 14.89293039 -9.234375 15.53515625 C-9.81703125 15.68855469 -10.3996875 15.84195313 -11 16 C-11.67441131 17.6635479 -12.33929135 19.33096246 -13 21 C-14.81568781 23.27123672 -16.86111595 25.28055699 -18.9375 27.3125 C-19.74477539 28.13717773 -19.74477539 28.13717773 -20.56835938 28.97851562 C-24.61981755 33 -24.61981755 33 -28 33 C-32.10510983 28.99357069 -31.90201244 24.07820203 -32.21484375 18.640625 C-31.89881069 13.28530109 -29.93689481 9.41042335 -27 5 C-26.34 5 -25.68 5 -25 5 C-25 4.34 -25 3.68 -25 3 C-16.27502521 -2.3418213 -9.76944072 -4.27880558 0 0 Z M-18 8 C-18 8.66 -18 9.32 -18 10 C-18.66 10 -19.32 10 -20 10 C-19.67 11.98 -19.34 13.96 -19 16 C-16.65466049 16.76956136 -16.65466049 16.76956136 -14 17 C-12 16 -12 16 -11 14 C-11.24205349 10.68181015 -11.24205349 10.68181015 -13 8 C-14.66617115 7.95936168 -16.33388095 7.957279 -18 8 Z " fill="#FC620C" transform="translate(103,83)"/>
<path d="M0 0 C1.5625 1.125 1.5625 1.125 3 3 C2.6875 6.125 2.6875 6.125 2 9 C1.94729537 10.36893239 1.94729537 10.36893239 3 13 C2.34 13.66 1.68 14.32 1 15 C1.061875 16.051875 1.12375 17.10375 1.1875 18.1875 C0.94991655 23.01836358 -0.74789145 25.52803059 -4 29 C-4.99 29.66 -5.98 30.32 -7 31 C-7.66 30.67 -8.32 30.34 -9 30 C-8.814375 30.598125 -8.62875 31.19625 -8.4375 31.8125 C-8 34 -8 34 -9 37 C-9.61875 37.598125 -10.2375 38.19625 -10.875 38.8125 C-13.20679034 40.94209313 -13.20679034 40.94209313 -14.3125 44.1875 C-14.869375 45.115625 -15.42625 46.04375 -16 47 C-19.6875 47.875 -19.6875 47.875 -23 48 C-23.33 48.99 -23.66 49.98 -24 51 C-26.97172226 53.7667759 -27.74190625 54 -32 54 C-32.66 54.66 -33.32 55.32 -34 56 C-34.99 55.67 -35.98 55.34 -37 55 C-36.2575 54.34 -35.515 53.68 -34.75 53 C-30.95052639 49.20052639 -28.38976582 44.50563743 -27.5625 39.1875 C-27.376875 38.465625 -27.19125 37.74375 -27 37 C-26.175 36.54625 -25.35 36.0925 -24.5 35.625 C-23.675 35.08875 -22.85 34.5525 -22 34 C-21.63239269 31.67182036 -21.29758419 29.3381615 -21 27 C-19.0625 25.625 -19.0625 25.625 -17 25 C-16.34 24.67 -15.68 24.34 -15 24 C-14.34 24.33 -13.68 24.66 -13 25 C-12.67 22.36 -12.34 19.72 -12 17 C-11.34 17 -10.68 17 -10 17 C-10.33 15.68 -10.66 14.36 -11 13 C-10.01 12.34 -9.02 11.68 -8 11 C-8 10.34 -8 9.68 -8 9 C-6.55245745 7.55245745 -4.96037087 7.44266439 -3 7 C-2.814375 5.824375 -2.814375 5.824375 -2.625 4.625 C-2 2 -2 2 0 0 Z " fill="#9831E2" transform="translate(177,89)"/>
<path d="M0 0 C1.32 0.33 2.64 0.66 4 1 C4.07582157 3.65375483 4.00858159 5.96090609 3.4375 8.5625 C2.98156776 11.10269391 3.19297496 12.57892488 4 15 C3.01 15.33 2.02 15.66 1 16 C1.66 17.32 2.32 18.64 3 20 C3.66 19.34 4.32 18.68 5 18 C5.66 19.32 6.32 20.64 7 22 C2.25 26 2.25 26 0 26 C-1.76462683 29.08809695 -2 30.23312136 -2 34 C-2.66 34 -3.32 34 -4 34 C-3.67 35.98 -3.34 37.96 -3 40 C-3.7425 39.835 -4.485 39.67 -5.25 39.5 C-8.19006578 38.88074304 -8.19006578 38.88074304 -12 39 C-13.125 36.8125 -13.125 36.8125 -14 34 C-13.36096883 32.32254318 -12.69658363 30.65438613 -12 29 C-12.66 28.01 -13.32 27.02 -14 26 C-13.01 24.515 -13.01 24.515 -12 23 C-12.66 22.67 -13.32 22.34 -14 22 C-13.01 22 -12.02 22 -11 22 C-10.7834375 21.071875 -10.7834375 21.071875 -10.5625 20.125 C-10 18 -10 18 -9 16 C-9.66 15.34 -10.32 14.68 -11 14 C-9.68 14 -8.36 14 -7 14 C-6.89816406 13.43667969 -6.79632813 12.87335938 -6.69140625 12.29296875 C-5.86573927 9.55473985 -4.57363201 7.65259425 -2.9375 5.3125 C-0.9294439 2.86736999 -0.9294439 2.86736999 0 0 Z M10 15 C10.33 16.32 10.66 17.64 11 19 C9.68 19 8.36 19 7 19 C7.99 17.68 8.98 16.36 10 15 Z M-13 41 C-13 41.99 -13 42.98 -13 44 C-13.66 43.34 -14.32 42.68 -15 42 C-14.34 41.67 -13.68 41.34 -13 41 Z M-16 44 C-15.01 44 -14.02 44 -13 44 C-13.60183749 46.02045442 -14.27306096 48.02111039 -15 50 C-15.99 50.495 -15.99 50.495 -17 51 C-17.33 51.66 -17.66 52.32 -18 53 C-18.33 52.01 -18.66 51.02 -19 50 C-19.99 50.495 -19.99 50.495 -21 51 C-21.66 50.34 -22.32 49.68 -23 49 C-22 48 -22 48 -19.4375 47.9375 C-18.2309375 47.9684375 -18.2309375 47.9684375 -17 48 C-16.67 46.68 -16.34 45.36 -16 44 Z " fill="#8C20ED" transform="translate(181,122)"/>
<path d="M0 0 C0.33 0 0.66 0 1 0 C2.09372719 4.15616331 1.82958741 6.89389322 0.6875 10.9375 C-0.22080771 14.6620868 -0.22080771 14.6620868 1.234375 18.05859375 C2.89433351 19.88886911 2.89433351 19.88886911 4.71484375 21.4296875 C5.13894531 21.94789062 5.56304687 22.46609375 6 23 C5.69140625 25.1953125 5.69140625 25.1953125 5 27 C4.34 27 3.68 27 3 27 C2.67 28.32 2.34 29.64 2 31 C1.34 31 0.68 31 0 31 C0 31.66 0 32.32 0 33 C-0.66 33 -1.32 33 -2 33 C-2.33 33.66 -2.66 34.32 -3 35 C-3.350625 34.525625 -3.70125 34.05125 -4.0625 33.5625 C-6.82199807 31.33709833 -9.52680745 31.47906104 -13 31 C-15.8125 29.4375 -15.8125 29.4375 -18 28 C-18.66 28 -19.32 28 -20 28 C-20 27.01 -20 26.02 -20 25 C-19.01 25 -18.02 25 -17 25 C-16.67 24.34 -16.34 23.68 -16 23 C-15.34 23 -14.68 23 -14 23 C-14 22.34 -14 21.68 -14 21 C-13.34 21 -12.68 21 -12 21 C-12 20.34 -12 19.68 -12 19 C-11.34 19 -10.68 19 -10 19 C-9.773125 18.443125 -9.54625 17.88625 -9.3125 17.3125 C-7.63575448 14.35823409 -5.45423315 12.33152149 -3 10 C-0.70424397 7.70424397 -0.67660401 6.99157475 -0.375 3.875 C-0.25125 2.59625 -0.1275 1.3175 0 0 Z " fill="#FD8A0C" transform="translate(114,97)"/>
<path d="M0 0 C0.33 0 0.66 0 1 0 C1.28774311 3.70868901 1.43035798 7.29892138 1 11 C-1.1875 13.25 -1.1875 13.25 -4 15 C-4.93971349 16.21735612 -5.83444804 17.47042206 -6.6875 18.75 C-7.450625 19.8225 -8.21375 20.895 -9 22 C-9.66 22 -10.32 22 -11 22 C-11 22.66 -11 23.32 -11 24 C-11.66 24 -12.32 24 -13 24 C-13 24.66 -13 25.32 -13 26 C-13.66 26 -14.32 26 -15 26 C-15.33 26.99 -15.66 27.98 -16 29 C-16.99 28.67 -17.98 28.34 -19 28 C-19.33 28.99 -19.66 29.98 -20 31 C-24.455 30.01 -24.455 30.01 -29 29 C-28.319375 28.505 -27.63875 28.01 -26.9375 27.5 C-23.81280589 24.84068587 -21.33505774 21.97362726 -18.74609375 18.8046875 C-17 17 -17 17 -15.171875 16.12890625 C-11.82265208 14.38803318 -9.44519673 11.73330573 -6.8125 9.0625 C-6.26658203 8.52431641 -5.72066406 7.98613281 -5.15820312 7.43164062 C-2.72700686 4.98839382 -1.10422024 3.31266073 0 0 Z " fill="#FD7705" transform="translate(113,94)"/>
<path d="M0 0 C1 2 1 2 0.50390625 3.8203125 C-2.87957426 12.10352204 -6.93024767 20.03830006 -11 28 C-12.5625 26.1875 -12.5625 26.1875 -14 24 C-13.505 22.515 -13.505 22.515 -13 21 C-13.32033957 18.99787771 -13.65259077 16.99760305 -14 15 C-13.67 14.67 -13.34 14.34 -13 14 C-12.95936168 12.33382885 -12.957279 10.66611905 -13 9 C-12.34 9 -11.68 9 -11 9 C-10.67 8.34 -10.34 7.68 -10 7 C-9.34 7 -8.68 7 -8 7 C-7.67 6.34 -7.34 5.68 -7 5 C-5.84332216 4.08464344 -4.65107082 3.21346712 -3.4375 2.375 C-2.79683594 1.92898437 -2.15617188 1.48296875 -1.49609375 1.0234375 C-1.00238281 0.68570313 -0.50867188 0.34796875 0 0 Z " fill="#852EDD" transform="translate(191,141)"/>
<path d="M0 0 C0.66 0.33 1.32 0.66 2 1 C1.2884375 2.175625 1.2884375 2.175625 0.5625 3.375 C-0.33898023 4.88948678 -1.21179485 6.4235897 -2 8 C-1.34 8 -0.68 8 0 8 C-0.3125 9.875 -0.3125 9.875 -1 12 C-1.99 12.66 -2.98 13.32 -4 14 C-4.99 13.34 -5.98 12.68 -7 12 C-6.67 10.35 -6.34 8.7 -6 7 C-6.66 6.67 -7.32 6.34 -8 6 C-5.54080489 3.3651481 -3.42227589 1.25483449 0 0 Z " fill="#B53AE3" transform="translate(122,157)"/>
<path d="M0 0 C0.33 0 0.66 0 1 0 C1.07347656 1.01320313 1.07347656 1.01320313 1.1484375 2.046875 C1.22320312 2.93890625 1.29796875 3.8309375 1.375 4.75 C1.44460937 5.63171875 1.51421875 6.5134375 1.5859375 7.421875 C1.99850055 9.99066382 2.71160957 11.75841015 4 14 C2.625 15.5 2.625 15.5 1 17 C0.34 17 -0.32 17 -1 17 C-1.12036664 11.22240116 -0.8320582 5.72040011 0 0 Z " fill="#B467E7" transform="translate(152,109)"/>
<path d="M0 0 C1.32 0.99 2.64 1.98 4 3 C2.90554162 3.86657116 1.79902219 4.71792724 0.6875 5.5625 C0.07261719 6.03816406 -0.54226562 6.51382813 -1.17578125 7.00390625 C-1.77777344 7.33261719 -2.37976563 7.66132813 -3 8 C-3.99 7.67 -4.98 7.34 -6 7 C-5.195625 6.21625 -4.39125 5.4325 -3.5625 4.625 C-1.01309583 2.28017144 -1.01309583 2.28017144 0 0 Z " fill="#B04BE6" transform="translate(146,137)"/>
<path d="M0 0 C2 2 2 2 2.125 5.125 C2.08375 6.07375 2.0425 7.0225 2 8 C1.34 7.67 0.68 7.34 0 7 C-0.66 7.66 -1.32 8.32 -2 9 C-1.67 7.35 -1.34 5.7 -1 4 C-1.66 3.67 -2.32 3.34 -3 3 C-2.01 2.01 -1.02 1.02 0 0 Z " fill="#AE29E1" transform="translate(117,160)"/>
<path d="" fill="#E3E2FA" transform="translate(0,0)"/>
<path d="" fill="#E3E2FA" transform="translate(0,0)"/>
<path d="" fill="#E3E2FA" transform="translate(0,0)"/>
<path d="" fill="#E3E2FA" transform="translate(0,0)"/>
<path d="" fill="#E3E2FA" transform="translate(0,0)"/>
<path d="" fill="#E3E2FA" transform="translate(0,0)"/>
<path d="" fill="#E3E2FA" transform="translate(0,0)"/>
<path d="" fill="#E3E2FA" transform="translate(0,0)"/>
<path d="" fill="#E3E2FA" transform="translate(0,0)"/>
<path d="" fill="#E3E2FA" transform="translate(0,0)"/>
</svg>
