<?xml version="1.0" encoding="UTF-8"?>
<svg version="1.1" xmlns="http://www.w3.org/2000/svg" width="225" height="225">
<path d="M0 0 C74.25 0 148.5 0 225 0 C225 74.25 225 148.5 225 225 C150.75 225 76.5 225 0 225 C0 150.75 0 76.5 0 0 Z " fill="#0A0A0A" transform="translate(0,0)"/>
<path d="M0 0 C12.87 0 25.74 0 39 0 C43.1564772 10.68808424 47.24902836 21.28567866 50.9375 32.125 C52.278125 36.04375 53.61875 39.9625 55 44 C43.12 44 31.24 44 19 44 C18.34 46.97 17.68 49.94 17 53 C16.48972481 54.65251943 15.94452695 56.29529994 15.34277344 57.91674805 C15.02726028 58.77572189 14.71174713 59.63469574 14.38667297 60.5196991 C14.04766464 61.42456558 13.70865631 62.32943207 13.359375 63.26171875 C13.00018478 64.23486526 12.64099457 65.20801178 12.2709198 66.21064758 C11.10276595 69.37166067 9.92652038 72.52959248 8.75 75.6875 C7.94030459 77.87284984 7.131146 80.05839864 6.32250977 82.24414062 C4.68185795 86.67719982 3.03834655 91.10918401 1.39306641 95.54052734 C-0.84333154 101.569543 -3.06006586 107.60560178 -5.26953125 113.64453125 C-5.91955037 115.41904354 -6.56961412 117.19353948 -7.21972656 118.96801758 C-8.13698507 121.47179201 -9.05365432 123.97577155 -9.96813965 126.4805603 C-10.80040578 128.75882669 -11.63609046 131.03580961 -12.47265625 133.3125 C-12.71659622 133.98299881 -12.96053619 134.65349762 -13.21186829 135.34431458 C-14.88595752 139.88595752 -14.88595752 139.88595752 -16 141 C-18.59359322 141.08851529 -21.16039691 141.11525945 -23.75390625 141.09765625 C-24.52935287 141.0962413 -25.3047995 141.09482635 -26.10374451 141.09336853 C-28.59003494 141.08775345 -31.0762366 141.07519846 -33.5625 141.0625 C-35.24413933 141.05748694 -36.92578006 141.0529237 -38.60742188 141.04882812 C-42.73831566 141.03777913 -46.86914276 141.02050445 -51 141 C-48.89557279 133.67099408 -46.45951868 126.50358568 -43.8515625 119.33984375 C-43.44642929 118.22056992 -43.04129608 117.10129608 -42.62388611 115.94810486 C-41.52286817 112.90889724 -40.41926917 109.87064418 -39.31419754 106.83290863 C-38.6211551 104.92692588 -37.92916166 103.02056557 -37.23751831 101.11407471 C-28.38418388 76.71120201 -19.43319888 52.34435235 -10.44140625 27.9921875 C-10.07965805 27.01201157 -9.71790985 26.03183563 -9.34519958 25.0219574 C-6.25817284 16.67049197 -3.1264325 8.33715334 0 0 Z " fill="#FCFCFC" transform="translate(93,42)"/>
<path d="M0 0 C9.9 0 19.8 0 30 0 C35.62729775 13.50551461 35.62729775 13.50551461 37.9543457 19.66455078 C38.20866867 20.33608688 38.46299164 21.00762299 38.72502136 21.69950867 C39.54405878 23.86398345 40.36009855 26.02957149 41.17578125 28.1953125 C41.75147576 29.72039979 42.32725761 31.24545412 42.90312195 32.77047729 C44.09870534 35.93824636 45.292684 39.10661454 46.4855957 42.27539062 C48.01637735 46.34101942 49.55211841 50.40475541 51.08912373 54.46803474 C52.27437539 57.60347205 53.45660969 60.74004041 54.63796043 63.87694931 C55.20349903 65.37729796 55.77008493 66.87725228 56.33773232 68.37680435 C57.12583826 70.45983417 57.9097718 72.54438672 58.69262695 74.62939453 C59.13943314 75.81453644 59.58623932 76.99967834 60.04658508 78.22073364 C61 81 61 81 61 83 C50.11 83 39.22 83 28 83 C27.14535156 80.41285156 26.29070312 77.82570313 25.41015625 75.16015625 C24.58348342 72.66455551 23.75578194 70.16929818 22.92797852 67.67407227 C22.35170451 65.93517156 21.77650631 64.19591396 21.20239258 62.45629883 C20.37861894 59.96081199 19.55102809 57.4666199 18.72265625 54.97265625 C18.46533218 54.19036148 18.20800812 53.40806671 17.94288635 52.60206604 C16.97198746 49.02212317 16.97198746 49.02212317 15 46 C10.71 58.21 6.42 70.42 2 83 C-8.89 83 -19.78 83 -31 83 C-25.55484304 67.04442379 -19.58533185 51.32079305 -13.53100586 35.58987427 C-10.55798726 27.86111862 -7.6206123 20.11897099 -4.6875 12.375 C-3.140625 8.29125 -1.59375 4.2075 0 0 Z " fill="#FCFCFC" transform="translate(122,100)"/>
<path d="M0 0 C0.33 0 0.66 0 1 0 C1.14695313 0.89460937 1.29390625 1.78921875 1.4453125 2.7109375 C2.96526949 10.90472864 5.0686904 17.26014164 10 24 C10.61359375 24.84175781 11.2271875 25.68351562 11.859375 26.55078125 C18.92472292 34.63467386 29.52178419 39.08085826 40 40 C40 40.33 40 40.66 40 41 C26.8 41 13.6 41 0 41 C0 27.47 0 13.94 0 0 Z " fill="#F8F8F8" transform="translate(0,184)"/>
<path d="M0 0 C13.53 0 27.06 0 41 0 C41 13.2 41 26.4 41 40 C40.67 40 40.34 40 40 40 C39.92523438 39.41734375 39.85046875 38.8346875 39.7734375 38.234375 C38.07432209 27.63989068 33.36162986 16.7025168 24.55859375 10.1953125 C16.72063443 4.94093643 9.35233102 1.99492883 0 1 C0 0.67 0 0.34 0 0 Z " fill="#F8F8F8" transform="translate(184,0)"/>
<path d="M0 0 C0.33 0 0.66 0 1 0 C1 13.53 1 27.06 1 41 C-11.21 41 -23.42 41 -36 41 C-36 40.67 -36 40.34 -36 40 C-35.39414063 39.85304687 -34.78828125 39.70609375 -34.1640625 39.5546875 C-21.76415787 36.23532841 -12.28879385 29.83480257 -5.578125 18.87890625 C-2.26516161 12.83520818 -0.72481995 6.81330755 0 0 Z " fill="#F9F9F9" transform="translate(224,184)"/>
<path d="M0 0 C13.2 0 26.4 0 40 0 C40 0.33 40 0.66 40 1 C39.12601563 1.11214844 39.12601563 1.11214844 38.234375 1.2265625 C27.62856107 2.92749492 16.89231789 7.63890676 10.23046875 16.30078125 C5.54417791 23.11810119 3.04251467 30.02023773 1 38 C0.67 38 0.34 38 0 38 C0 25.46 0 12.92 0 0 Z " fill="#F9F9F9" transform="translate(0,0)"/>
<path d="M0 0 C0.66 0.33 1.32 0.66 2 1 C-0.64 3.64 -3.28 6.28 -6 9 C-6.66 8.67 -7.32 8.34 -8 8 C-3.375 2.25 -3.375 2.25 0 0 Z " fill="#161616" transform="translate(17,9)"/>
</svg>
