<?xml version="1.0" encoding="UTF-8"?>
<svg version="1.1" xmlns="http://www.w3.org/2000/svg" width="32" height="32">
<path d="M0 0 C2.5 2.125 2.5 2.125 4 5 C3.9372608 8.13696013 3.52142463 10.11051093 1.9375 12.8125 C-1.16915285 14.71657756 -4.39669525 14.65129309 -8 15 C-9.81115956 16.81115956 -9.38199448 19.61278227 -9.5625 22.0625 C-9.706875 24.021875 -9.85125 25.98125 -10 28 C-14.62 28 -19.24 28 -24 28 C-24 22.72 -24 17.44 -24 12 C-21.75390625 12.09765625 -19.5078125 12.1953125 -17.26171875 12.29296875 C-14.93929107 12.18080875 -14.93929107 12.18080875 -13.234375 10.67578125 C-11.75038615 8.93642363 -11.75038615 8.93642363 -11.5625 6 C-11 3 -11 3 -9.375 1.125 C-5.99250368 -0.4772351 -3.69401119 -0.52771588 0 0 Z " fill="#000000" transform="translate(26,2)"/>
</svg>
